<?xml version="1.0" encoding="utf-8"?>
<!-- Svg Vector Icons : http://www.onlinewebfonts.com/icon -->
<!DOCTYPE svg PUBLIC "-//W3C//DTD SVG 1.1//EN" "http://www.w3.org/Graphics/SVG/1.1/DTD/svg11.dtd">
<svg version="1.1" xmlns="http://www.w3.org/2000/svg" xmlns:xlink="http://www.w3.org/1999/xlink" x="0px" y="0px" viewBox="0 0 1000 1000" enable-background="new 0 0 1000 1000" xml:space="preserve">
<metadata> Svg Vector Icons : http://www.onlinewebfonts.com/icon </metadata>
<g><g transform="translate(0.000000,511.000000) scale(0.100000,-0.100000)"><path d="M177.2,3163.3c-62.4-47.5-77.2-86.1-77.2-184.1v-124.7l1853.1-1853.1c1767-1767,1862-1856.1,1963-1856.1c101,0,157.4,50.5,950.3,843.4L5712.7,835L7144.1-596.4l1431.4-1431.4l-288.1-297c-347.5-359.4-389-472.2-219.8-626.6c59.4-56.4,106.9-59.4,873.1-59.4h813.7l71.3,74.2l74.2,71.3v819.6v819.7l-74.2,71.3c-50.5,50.5-103.9,74.2-178.2,74.2c-95,0-139.6-32.7-412.8-297l-302.9-294L7390.6-130.1C6336.4,924.1,5822.6,1417.1,5769.2,1429c-47.5,11.9-115.8,0-166.3-26.7c-44.5-23.8-442.5-403.9-885-846.4l-801.8-804.8L2178.8,1488.3C284.1,3383,367.3,3311.8,177.2,3163.3z"/></g></g>
</svg>