<svg xmlns="http://www.w3.org/2000/svg" viewBox="0 0 64 64"><defs><style>.cls-1{fill:#f0efe3;}.cls-2{fill:#bdab9d;}.cls-3{opacity:0.15;}.cls-4{fill:#5f4e56;}.cls-5{isolation:isolate;}</style></defs><title>line-graph</title><g id="Line-Graph"><g id="Cream"><path class="cls-1" d="M7,42a5,5,0,1,0,5,5A5,5,0,0,0,7,42ZM25,28a5,5,0,1,0,5,5A5,5,0,0,0,25,28ZM37,10a5,5,0,1,0,5,5A5,5,0,0,0,37,10ZM57,22a5,5,0,1,0,5,5A5,5,0,0,0,57,22Z"/></g><g id="Brown"><path class="cls-2" d="M25,28a5,5,0,1,0,5,5A5,5,0,0,0,25,28Zm32-6a5,5,0,1,0,5,5A5,5,0,0,0,57,22Z"/></g><g id="Details" class="cls-3"><path class="cls-4" d="M38,15a1,1,0,1,0,1,1A1,1,0,0,0,38,15ZM62,25H57a1,1,0,1,0,0,2h5a1,1,0,0,0,0-2ZM25,33H20a1,1,0,1,0,0,2h5a1,1,0,0,0,0-2ZM10,45H8a1,1,0,0,0,0,2h2a1,1,0,1,0,0-2Z"/></g><g id="Outline"><path class="cls-4" d="M57,20a7,7,0,0,0-4.72,1.84l-8.51-5.1a7,7,0,1,0-12.16,2.74l-4.56,6.84a7,7,0,0,0-8.58,9.23l-7.42,5.77a7,7,0,1,0,2.46,3.16l7.42-5.77a7,7,0,0,0,9.45-10.17l4.56-6.84a7,7,0,0,0,6.78-1.53l8.51,5.1A7,7,0,1,0,57,20ZM7,50a3,3,0,1,1,3-3A3,3,0,0,1,7,50ZM25,36a3,3,0,1,1,3-3A3,3,0,0,1,25,36ZM37,18a3,3,0,1,1,3-3A3,3,0,0,1,37,18ZM57,30a3,3,0,1,1,3-3A3,3,0,0,1,57,30Z"/></g></g></svg>