<svg xmlns="http://www.w3.org/2000/svg" width="25" height="25" viewBox="0 0 25 25">
  <g fill="#938CAA" fill-rule="evenodd">
    <path fill-opacity=".24" d="M24.3678,14.3594 L23.8178,14.2504 C23.5788,14.2004 23.3378,14.3344 23.2518,14.5644 C21.5768,19.0114 17.2558,22.0004 12.4998,22.0004 C6.5678,22.0004 1.5378,17.3704 1.0478,11.4594 C1.0268,11.2004 0.8108,11.0014 0.5518,11.0004 L0.5498,11.0004 C0.2908,11.0004 0.0758,11.1974 0.0518,11.4554 C0.0208,11.7994 -0.0002,12.1444 -0.0002,12.5004 C-0.0002,19.3924 5.6078,25.0004 12.4998,25.0004 C18.4498,25.0004 23.6058,20.7724 24.7608,14.9474 C24.8138,14.6754 24.6388,14.4134 24.3678,14.3594"/>
    <path d="M17.5177,9.7593 L23.1697,5.9903 C23.3817,6.3393 23.5707,6.6833 23.7407,7.0283 L17.5177,9.7593 Z M12.4997,14.0003 C11.6727,14.0003 10.9997,13.3273 10.9997,12.5003 C10.9997,11.6733 11.6727,11.0003 12.4997,11.0003 C13.3277,11.0003 13.9997,11.6733 13.9997,12.5003 C13.9997,13.3273 13.3277,14.0003 12.4997,14.0003 L12.4997,14.0003 Z M24.8677,7.0773 C24.5617,6.3883 24.1927,5.7153 23.7387,5.0173 C23.6657,4.9053 23.5517,4.8273 23.4207,4.8003 C23.2907,4.7743 23.1537,4.8003 23.0427,4.8743 L22.6037,5.1663 C20.2447,1.9313 16.5127,0.0003 12.4997,0.0003 C5.6077,0.0003 -0.0003,5.6073 -0.0003,12.5003 C-0.0003,19.3923 5.6077,25.0003 12.4997,25.0003 C18.4407,25.0003 23.5967,20.7773 24.7607,14.9583 C24.8147,14.6873 24.6387,14.4243 24.3687,14.3693 C24.0987,14.3123 23.8337,14.4903 23.7797,14.7613 C22.7087,20.1143 17.9657,24.0003 12.4997,24.0003 C6.1587,24.0003 0.9997,18.8413 0.9997,12.5003 C0.9997,6.1583 6.1587,1.0003 12.4997,1.0003 C16.1777,1.0003 19.5977,2.7643 21.7717,5.7213 L20.1027,6.8333 C18.3157,4.4323 15.5177,3.0003 12.4997,3.0003 C7.2617,3.0003 2.9997,7.2613 2.9997,12.5003 C2.9997,17.7383 7.2617,22.0003 12.4997,22.0003 C17.0097,22.0003 20.9297,18.7903 21.8207,14.3683 C21.8747,14.0983 21.6997,13.8343 21.4287,13.7803 C21.1597,13.7243 20.8937,13.9003 20.8397,14.1713 C20.0427,18.1283 16.5357,21.0003 12.4997,21.0003 C7.8127,21.0003 3.9997,17.1873 3.9997,12.5003 C3.9997,7.8133 7.8127,4.0003 12.4997,4.0003 C15.1837,4.0003 17.6707,5.2643 19.2717,7.3873 L17.6067,8.4983 C16.3827,6.9303 14.5137,6.0003 12.4997,6.0003 C8.9157,6.0003 5.9997,8.9163 5.9997,12.5003 C5.9997,16.0843 8.9157,19.0003 12.4997,19.0003 C15.5977,19.0003 18.2767,16.8033 18.8707,13.7763 C18.9237,13.5053 18.7467,13.2423 18.4757,13.1893 C18.2057,13.1343 17.9417,13.3123 17.8897,13.5843 C17.3867,16.1423 15.1207,18.0003 12.4997,18.0003 C9.4677,18.0003 6.9997,15.5323 6.9997,12.5003 C6.9997,9.4673 9.4677,7.0003 12.4997,7.0003 C14.1787,7.0003 15.7387,7.7623 16.7747,9.0523 L14.2617,10.7283 C13.8097,10.2793 13.1867,10.0003 12.4997,10.0003 C11.1217,10.0003 9.9997,11.1213 9.9997,12.5003 C9.9997,13.8783 11.1217,15.0003 12.4997,15.0003 C13.8787,15.0003 14.9997,13.8783 14.9997,12.5003 C14.9997,12.3223 14.9797,12.1493 14.9447,11.9813 L24.6117,7.7383 C24.7327,7.6843 24.8287,7.5843 24.8767,7.4603 C24.9247,7.3373 24.9207,7.1983 24.8677,7.0773 L24.8677,7.0773 Z"/>
  </g>
</svg>
